<?xml version="1.0" standalone="no"?>
<!DOCTYPE svg PUBLIC "-//W3C//DTD SVG 20010904//EN"
 "http://www.w3.org/TR/2001/REC-SVG-20010904/DTD/svg10.dtd">
<svg version="1.0" xmlns="http://www.w3.org/2000/svg"
 width="2048.000000pt" height="2048.000000pt" viewBox="0 0 2048.000000 2048.000000"
 preserveAspectRatio="xMidYMid meet">

<g transform="translate(0.000000,2048.000000) scale(0.100000,-0.100000)"
fill="#000000" stroke="none">
<path d="M9800 16099 c-41 -5 -154 -8 -250 -7 -96 1 -258 -4 -360 -10 -102 -7
-251 -12 -332 -11 -81 0 -151 -2 -157 -5 -11 -7 -301 -30 -366 -28 -27 0 -93
-5 -145 -13 -52 -8 -126 -14 -165 -14 -38 0 -92 -5 -120 -11 -29 -7 -79 -9
-120 -5 -49 4 -91 1 -140 -10 -38 -9 -82 -14 -97 -11 -16 3 -52 1 -80 -5 -29
-6 -89 -12 -133 -14 -44 -2 -96 -6 -115 -10 -19 -3 -54 -8 -78 -10 -23 -1 -50
-6 -60 -10 -9 -4 -51 -11 -92 -15 -41 -5 -95 -14 -120 -20 -25 -6 -58 -13 -75
-16 -49 -8 -216 -45 -275 -61 -30 -9 -72 -17 -93 -20 -20 -3 -40 -9 -43 -14
-3 -5 -16 -9 -29 -9 -13 0 -27 -4 -30 -10 -3 -5 -17 -10 -30 -10 -13 0 -26 -4
-29 -9 -3 -5 -23 -12 -43 -16 -21 -4 -45 -12 -53 -19 -8 -8 -31 -16 -49 -20
-19 -3 -58 -22 -87 -42 -28 -19 -63 -37 -78 -38 -15 -2 -34 -13 -42 -25 -8
-11 -24 -21 -35 -21 -12 0 -19 -7 -19 -19 0 -11 -14 -27 -33 -38 -18 -11 -55
-46 -82 -79 -28 -32 -61 -70 -73 -84 -13 -14 -53 -64 -89 -112 -36 -49 -70
-88 -74 -88 -5 0 -9 -7 -9 -15 0 -8 -18 -31 -40 -51 -22 -21 -40 -41 -40 -47
0 -14 -62 -107 -72 -107 -4 0 -8 -7 -8 -16 0 -8 -13 -29 -30 -46 -17 -16 -30
-33 -30 -36 0 -9 -59 -91 -123 -171 -27 -34 -45 -66 -42 -71 4 -6 -10 -26 -30
-45 -20 -19 -34 -39 -30 -45 3 -5 -4 -15 -16 -22 -20 -12 -119 -149 -119 -165
0 -12 -57 -92 -85 -121 -14 -14 -28 -37 -32 -51 -3 -14 -21 -40 -39 -57 -19
-18 -37 -46 -40 -64 -4 -17 -15 -37 -25 -43 -11 -7 -19 -19 -19 -29 0 -9 -8
-23 -18 -30 -24 -17 -82 -103 -82 -121 0 -8 -13 -28 -28 -43 -35 -36 -61 -76
-156 -238 -42 -70 -76 -134 -76 -142 0 -21 -20 -54 -59 -96 -18 -20 -30 -41
-27 -46 4 -6 -2 -26 -12 -44 -14 -26 -26 -34 -53 -36 -19 -2 -39 -8 -46 -14
-7 -5 -26 -7 -43 -3 -19 4 -41 1 -61 -9 -18 -9 -54 -16 -80 -16 -26 0 -51 -4
-54 -10 -3 -5 -17 -10 -30 -10 -13 0 -27 -4 -30 -10 -3 -5 -16 -10 -27 -10
-23 0 -81 -17 -110 -31 -10 -5 -27 -9 -37 -9 -11 0 -23 -4 -26 -10 -3 -5 -15
-10 -25 -10 -11 0 -35 -9 -55 -20 -20 -11 -42 -20 -49 -20 -19 0 -214 -99
-260 -132 -21 -15 -45 -28 -53 -28 -8 0 -26 -13 -40 -30 -13 -16 -30 -30 -37
-30 -17 0 -273 -254 -329 -328 -28 -36 -45 -67 -41 -76 3 -9 -3 -20 -16 -28
-11 -7 -34 -36 -50 -64 -16 -30 -60 -79 -102 -115 -40 -35 -96 -88 -123 -116
-28 -29 -55 -53 -62 -53 -9 0 -53 -36 -98 -82 -84 -83 -165 -174 -165 -184 0
-7 -13 -24 -30 -37 -16 -14 -30 -32 -30 -40 0 -8 -9 -22 -20 -32 -11 -10 -20
-24 -20 -30 0 -7 -7 -18 -15 -25 -19 -16 -45 -68 -45 -91 0 -10 -5 -21 -10
-24 -5 -3 -10 -21 -10 -40 0 -19 -5 -37 -10 -40 -14 -8 -14 -522 0 -530 6 -4
10 -65 10 -150 0 -85 4 -146 10 -150 6 -3 10 -48 10 -100 0 -52 4 -97 10 -100
6 -3 10 -48 10 -100 0 -52 4 -97 10 -100 6 -3 10 -35 10 -70 0 -35 5 -67 10
-70 6 -3 10 -26 10 -50 0 -24 5 -47 10 -50 6 -3 10 -26 10 -50 0 -24 5 -47 10
-50 6 -3 10 -21 10 -40 0 -19 4 -37 10 -40 5 -3 10 -26 10 -50 0 -24 5 -47 10
-50 6 -3 10 -25 10 -49 0 -23 5 -47 11 -53 10 -10 8 -126 -7 -367 -3 -64 -2
-102 5 -109 7 -7 11 -115 11 -323 0 -198 4 -315 10 -319 6 -4 10 -68 10 -160
0 -92 4 -156 10 -160 6 -4 10 -62 10 -140 0 -78 4 -136 10 -140 6 -4 10 -55
10 -120 0 -65 4 -116 10 -120 6 -3 10 -44 10 -90 0 -46 5 -87 10 -90 6 -3 10
-48 10 -100 0 -52 4 -97 10 -100 6 -3 10 -35 10 -70 0 -35 4 -67 10 -70 5 -3
10 -39 10 -80 0 -41 5 -77 10 -80 6 -3 10 -39 10 -80 0 -41 4 -77 10 -80 6 -3
10 -35 10 -70 0 -35 5 -67 10 -70 6 -3 10 -35 10 -70 0 -35 5 -67 10 -70 6 -3
10 -35 10 -70 0 -37 5 -67 11 -71 7 -4 10 -26 6 -59 -4 -39 -1 -59 10 -75 12
-16 14 -35 9 -75 -4 -40 -2 -56 9 -65 9 -8 15 -30 15 -56 0 -23 5 -46 10 -49
6 -3 10 -20 10 -37 0 -31 13 -83 33 -125 5 -11 6 -26 3 -32 -4 -6 -3 -11 2
-11 11 0 42 -65 42 -89 0 -10 7 -24 16 -32 23 -19 64 -104 64 -134 l0 -25
-684 0 c-446 0 -687 -3 -691 -10 -10 -15 -232 -13 -238 3 -4 10 -6 10 -6 0 -1
-10 -41 -13 -165 -13 -99 0 -167 -4 -171 -10 -3 -6 -15 -10 -26 -10 -13 0 -25
-12 -35 -35 -13 -32 -13 -38 3 -60 18 -24 21 -24 161 -25 105 0 148 -4 165
-14 24 -16 283 -20 626 -10 122 3 192 2 205 -5 14 -8 252 -13 716 -16 1495
-11 1785 -15 1805 -25 13 -7 108 -9 275 -5 140 3 478 7 750 10 296 4 499 10
504 15 15 15 123 12 129 -2 4 -10 8 -10 15 1 8 11 14 12 24 3 19 -15 3142 -17
3203 -2 51 12 228 13 240 1 6 -6 511 -12 1300 -16 710 -4 1394 -7 1520 -8 127
-1 775 4 1440 11 826 9 1491 10 2095 4 487 -4 962 -6 1055 -4 94 2 537 6 985
8 448 1 889 5 980 8 91 3 262 8 380 11 339 10 541 23 555 37 12 11 22 83 17
116 -3 21 -11 32 -27 36 -22 6 -1720 8 -1781 2 -17 -1 -36 -6 -42 -10 -17 -10
-16 38 2 72 24 48 103 295 116 362 7 36 16 79 21 95 14 49 53 268 68 385 5 36
14 94 19 130 25 154 44 304 62 495 5 50 14 128 20 175 26 207 48 515 62 855 6
154 12 314 14 355 14 254 19 612 11 895 -3 136 -1 196 10 245 8 36 18 86 22
112 4 25 13 53 20 61 7 9 9 26 6 40 -4 14 -1 35 6 48 6 13 13 39 15 59 1 19 8
71 14 115 7 44 16 114 20 155 5 41 14 107 19 145 38 265 74 703 75 920 1 168
-23 328 -58 390 -42 75 -73 124 -96 155 -52 68 -346 362 -382 381 -35 18 -76
45 -168 113 -45 32 -127 141 -155 205 -8 18 -30 51 -48 72 -17 21 -50 62 -72
90 -61 77 -197 219 -225 234 -14 8 -38 27 -55 42 -16 16 -49 37 -72 47 -24 11
-43 22 -43 26 0 4 -51 32 -114 63 -63 31 -117 61 -121 67 -3 5 -17 10 -30 10
-13 0 -37 5 -52 11 -74 30 -135 49 -156 49 -10 0 -25 4 -35 9 -33 16 -89 31
-120 31 -17 0 -33 4 -36 9 -3 5 -42 12 -86 16 l-81 7 -25 47 c-34 63 -70 122
-89 146 -8 11 -26 34 -39 50 -25 33 -106 164 -106 172 0 3 -7 11 -16 17 -8 6
-16 19 -18 29 -1 9 -9 23 -17 29 -18 15 -104 145 -122 185 -6 15 -20 36 -29
45 -10 10 -18 23 -18 28 0 6 -7 18 -15 28 -47 53 -65 81 -59 96 4 10 1 16 -8
16 -16 0 -58 41 -58 57 0 5 -9 18 -20 28 -11 10 -20 23 -20 30 0 7 -9 20 -20
30 -11 10 -20 23 -20 30 0 7 -9 20 -20 30 -11 10 -20 23 -20 30 0 7 -9 20 -20
30 -11 10 -20 26 -20 36 0 10 -13 27 -30 39 -16 12 -30 29 -30 38 0 10 -9 23
-20 30 -11 7 -20 19 -20 28 0 9 -11 25 -25 36 -14 11 -25 27 -25 37 0 10 -11
27 -25 39 -14 12 -25 28 -25 36 0 8 -6 19 -13 23 -12 8 -98 132 -127 185 -8
15 -24 37 -35 50 -11 13 -57 75 -102 138 -44 63 -95 127 -112 143 -17 15 -31
31 -31 36 0 5 -18 28 -40 52 -22 24 -40 47 -40 50 0 4 -27 35 -60 69 -33 34
-60 69 -60 76 0 8 -7 14 -15 14 -8 0 -31 17 -51 37 -21 20 -67 57 -103 82 -65
44 -232 131 -252 131 -5 0 -41 16 -80 35 -39 19 -86 35 -105 35 -19 0 -42 4
-52 9 -16 8 -40 15 -144 42 -24 6 -57 15 -74 20 -17 5 -39 9 -50 9 -11 0 -30
7 -43 16 -14 10 -33 14 -51 11 -16 -4 -35 0 -46 8 -11 8 -31 11 -46 8 -17 -3
-37 1 -52 10 -15 10 -46 16 -85 16 -33 0 -64 2 -69 5 -4 2 -43 6 -85 7 -43 1
-103 10 -134 20 -65 22 -114 24 -131 7 -9 -9 -15 -9 -24 0 -7 7 -39 12 -73 12
-36 0 -69 6 -80 14 -26 18 -170 32 -179 18 -4 -6 -20 -8 -39 -5 -17 3 -84 10
-147 15 -107 8 -194 14 -565 36 -77 5 -156 13 -175 19 -19 5 -77 8 -128 5 -66
-3 -96 -1 -107 8 -12 10 -19 10 -27 2 -15 -15 -85 -16 -93 -1 -4 6 -14 7 -24
4 -27 -11 -59 -13 -103 -5 -27 5 -48 4 -60 -3 -14 -9 -23 -8 -40 3 -19 13 -71
15 -326 12 -207 -2 -308 0 -316 8 -18 14 -585 22 -686 9z m1315 -189 c4 -6 92
-10 230 -10 138 0 226 -4 230 -10 4 -6 78 -10 190 -10 112 0 186 -4 190 -10 4
-6 68 -10 160 -10 92 0 156 -4 160 -10 3 -6 52 -10 110 -10 58 0 107 -4 110
-10 4 -6 58 -10 130 -10 72 0 126 -4 130 -10 3 -5 39 -10 80 -10 41 0 77 -4
80 -10 3 -5 44 -10 90 -10 46 0 87 -4 90 -10 3 -5 35 -10 70 -10 35 0 67 -4
70 -10 3 -5 30 -10 60 -10 30 0 57 -4 60 -10 3 -5 30 -10 60 -10 30 0 57 -4
60 -10 3 -5 30 -10 60 -10 30 0 57 -4 60 -10 3 -5 26 -10 50 -10 24 0 47 -4
50 -10 3 -5 26 -10 50 -10 24 0 47 -4 50 -10 3 -5 21 -10 40 -10 19 0 37 -4
40 -10 3 -5 21 -10 40 -10 19 0 37 -4 40 -10 3 -5 16 -10 28 -10 12 0 37 -9
55 -20 18 -11 41 -20 52 -20 10 0 22 -4 25 -10 3 -5 15 -10 25 -10 31 0 211
-83 230 -105 7 -8 18 -15 25 -15 6 0 20 -9 30 -20 10 -11 23 -20 29 -20 14 0
186 -171 186 -186 0 -6 9 -19 20 -29 11 -10 20 -23 20 -30 0 -6 18 -29 40 -50
22 -21 40 -44 40 -50 0 -6 14 -24 30 -40 17 -16 30 -34 30 -40 0 -7 9 -20 20
-30 11 -10 20 -23 20 -30 0 -6 14 -24 30 -40 17 -16 30 -34 30 -40 0 -6 14
-24 30 -40 17 -16 30 -34 30 -40 0 -7 9 -20 20 -30 11 -10 20 -23 20 -30 0 -6
14 -24 30 -40 17 -16 30 -34 30 -40 0 -6 14 -24 30 -40 17 -16 30 -34 30 -40
0 -7 9 -20 20 -30 11 -10 20 -22 20 -28 0 -5 14 -25 31 -45 17 -20 37 -50 45
-67 7 -17 20 -37 28 -45 9 -7 16 -18 16 -25 0 -6 9 -20 20 -30 11 -10 20 -23
20 -30 0 -6 14 -24 30 -40 17 -16 30 -34 30 -40 0 -7 9 -20 20 -30 11 -10 20
-28 20 -39 0 -12 9 -25 22 -31 13 -6 28 -20 34 -32 6 -13 18 -31 27 -41 10
-10 17 -23 17 -29 0 -5 9 -18 20 -28 11 -10 20 -23 20 -30 0 -7 9 -20 20 -30
11 -10 20 -24 20 -30 0 -7 7 -18 15 -25 9 -7 25 -32 35 -55 10 -23 26 -48 35
-55 8 -7 15 -18 15 -25 0 -7 7 -19 17 -26 9 -8 24 -33 35 -55 10 -23 25 -47
33 -54 8 -7 15 -18 15 -24 0 -7 14 -25 30 -41 17 -16 30 -34 30 -40 0 -7 9
-20 20 -30 11 -10 20 -24 20 -30 0 -7 7 -19 16 -26 9 -7 20 -22 25 -34 5 -11
21 -35 34 -54 15 -20 25 -48 25 -67 0 -33 -1 -34 -42 -34 -56 0 -105 30 -126
79 -17 38 -42 72 -114 155 -21 24 -38 48 -38 53 0 5 -9 18 -20 28 -11 10 -20
23 -20 30 0 7 -9 20 -20 30 -11 10 -20 24 -20 30 0 7 -7 19 -17 26 -9 8 -24
33 -35 55 -10 23 -25 47 -33 54 -8 7 -15 18 -15 25 0 6 -9 20 -20 30 -11 10
-20 23 -20 30 0 7 -9 20 -20 30 -11 10 -20 23 -20 30 0 7 -9 20 -20 30 -11 10
-20 22 -20 27 0 6 -16 29 -36 51 -19 23 -38 55 -41 70 -3 15 -13 32 -22 37 -9
4 -34 34 -56 65 -22 32 -50 70 -62 85 -13 15 -23 32 -23 37 0 6 -9 18 -20 28
-11 10 -20 23 -20 30 0 7 -9 20 -20 30 -11 10 -20 23 -20 30 0 7 -9 20 -20 30
-11 10 -20 23 -20 30 0 6 -16 27 -36 46 -19 18 -44 52 -55 74 -22 43 -59 98
-90 131 -10 11 -19 24 -19 28 0 8 -25 41 -87 115 -18 21 -33 43 -33 48 0 5
-16 25 -36 44 -19 18 -45 53 -56 76 -12 24 -32 53 -45 65 -13 12 -23 27 -23
33 0 7 -9 20 -20 30 -11 10 -20 23 -20 29 0 14 -162 176 -176 176 -6 0 -17 7
-24 15 -12 15 -153 85 -171 85 -5 0 -17 4 -27 9 -40 21 -126 51 -148 51 -12 0
-26 5 -29 10 -3 6 -17 10 -30 10 -13 0 -27 5 -30 10 -3 6 -26 10 -50 10 -24 0
-47 5 -50 10 -3 6 -16 10 -29 10 -12 0 -26 4 -31 9 -6 5 -28 11 -50 14 -22 3
-71 12 -110 20 -108 23 -210 37 -265 37 -27 0 -52 5 -55 10 -3 6 -43 10 -89
10 -45 0 -86 4 -91 9 -6 5 -41 12 -80 15 -181 15 -211 18 -220 27 -5 5 -46 9
-91 9 -46 0 -86 5 -89 10 -4 6 -58 10 -130 10 -72 0 -126 4 -130 10 -4 6 -62
10 -140 10 -78 0 -136 4 -140 10 -4 6 -71 10 -169 10 -108 0 -166 4 -173 11
-8 8 -57 11 -148 10 -85 -1 -142 2 -150 9 -27 23 -362 31 -1100 26 -793 -5
-1392 -19 -1640 -36 -82 -6 -215 -13 -295 -16 -80 -3 -149 -9 -155 -15 -5 -5
-46 -9 -91 -9 -46 0 -86 -4 -89 -10 -4 -6 -55 -10 -120 -10 -65 0 -116 -4
-120 -10 -3 -5 -39 -10 -80 -10 -41 0 -77 -4 -80 -10 -3 -6 -48 -10 -100 -10
-52 0 -97 -4 -100 -10 -3 -5 -39 -10 -79 -10 -39 0 -76 -4 -82 -9 -5 -5 -49
-12 -99 -15 -84 -4 -140 -11 -290 -34 -62 -10 -256 -55 -311 -72 -17 -6 -41
-10 -53 -10 -13 0 -51 -9 -85 -20 -229 -73 -249 -81 -274 -103 -10 -9 -21 -17
-25 -17 -28 0 -277 -229 -277 -255 0 -6 -18 -29 -40 -50 -22 -21 -40 -43 -40
-48 0 -5 -15 -27 -32 -48 -66 -78 -88 -107 -88 -117 0 -5 -7 -16 -16 -23 -9
-7 -20 -22 -25 -34 -5 -11 -23 -38 -40 -60 -16 -22 -34 -50 -39 -62 -5 -13
-16 -23 -25 -23 -9 0 -15 -9 -15 -23 0 -13 -9 -32 -20 -42 -11 -10 -20 -23
-20 -30 0 -7 -9 -20 -20 -30 -11 -10 -20 -23 -20 -30 0 -7 -9 -20 -20 -30 -11
-10 -20 -23 -20 -30 0 -6 -13 -24 -30 -40 -16 -16 -30 -34 -30 -40 0 -6 -11
-22 -25 -35 -13 -13 -34 -40 -44 -61 -11 -21 -33 -57 -48 -80 -15 -23 -33 -50
-39 -60 -6 -11 -18 -27 -27 -37 -10 -10 -17 -23 -17 -29 0 -6 -7 -16 -16 -24
-8 -7 -26 -33 -39 -58 -12 -25 -32 -55 -44 -65 -12 -11 -21 -24 -21 -31 0 -7
-9 -20 -20 -30 -11 -10 -20 -23 -20 -30 0 -7 -9 -20 -20 -30 -11 -10 -20 -23
-20 -30 0 -7 -9 -20 -20 -30 -11 -10 -20 -23 -20 -30 0 -7 -13 -30 -28 -51
-15 -21 -36 -56 -45 -76 -10 -20 -22 -40 -27 -43 -6 -3 -19 -25 -29 -48 -11
-23 -31 -53 -45 -66 -14 -14 -26 -30 -26 -36 0 -7 -9 -20 -20 -30 -11 -10 -20
-23 -20 -30 0 -7 -9 -20 -20 -30 -11 -10 -20 -22 -20 -27 0 -5 -14 -27 -32
-49 -30 -37 -34 -39 -90 -39 -57 0 -58 1 -58 28 0 28 39 113 65 142 8 8 21 32
29 52 9 20 21 40 26 43 6 4 15 18 20 31 5 13 16 24 25 24 9 0 15 9 15 23 0 13
9 32 20 42 11 10 20 23 20 30 0 7 9 20 20 30 11 10 20 22 20 28 0 5 14 29 30
54 17 24 30 48 30 52 0 4 9 16 20 26 11 10 20 23 20 30 0 7 9 20 20 30 11 10
20 23 20 30 0 7 9 20 20 30 11 10 20 24 20 30 0 7 7 19 16 26 9 7 20 23 25 36
5 13 15 23 24 23 9 0 15 9 15 21 0 12 14 41 30 66 17 24 30 48 30 52 0 4 9 16
20 26 11 10 20 23 20 30 0 7 9 20 20 30 11 10 20 23 20 30 0 7 9 20 20 30 11
10 20 23 20 30 0 6 21 32 48 57 51 49 92 109 92 137 0 10 9 26 20 36 11 10 20
23 20 30 0 6 14 24 30 40 17 16 30 34 30 41 0 6 7 18 16 25 9 7 20 23 25 36 5
13 15 23 24 23 9 0 15 9 15 22 0 25 27 58 47 58 7 0 13 11 13 26 0 17 6 28 20
31 12 3 20 14 20 26 0 24 27 57 47 57 7 0 13 10 13 23 0 13 14 36 30 52 17 16
30 34 30 40 0 7 9 20 20 30 11 10 20 23 20 30 0 6 18 29 40 50 22 21 40 44 40
50 0 12 108 116 172 166 18 15 92 55 163 91 111 55 187 83 371 139 17 5 44 9
62 9 17 0 33 4 36 9 3 5 23 11 43 15 88 13 113 19 119 27 3 5 24 9 48 9 23 0
46 4 52 9 5 5 34 12 64 15 30 3 89 10 130 16 41 6 100 13 130 16 30 3 64 9 75
14 11 5 58 12 105 15 96 6 262 20 425 35 61 6 151 13 200 16 50 2 99 9 110 14
11 5 85 12 165 15 80 3 240 9 355 15 116 5 319 13 452 17 133 5 245 11 249 16
12 11 1802 9 1809 -3z m-155 -250 c1100 -31 1715 -75 2230 -160 63 -10 126
-20 268 -39 37 -6 92 -15 122 -21 30 -6 75 -14 100 -19 43 -8 123 -31 185 -53
17 -6 74 -26 128 -44 95 -33 217 -89 227 -104 3 -4 19 -14 35 -23 17 -8 50
-39 75 -67 25 -29 69 -79 98 -111 28 -32 52 -62 52 -66 0 -5 18 -28 40 -51 22
-24 40 -48 40 -52 0 -5 10 -19 23 -32 12 -13 55 -72 94 -133 40 -60 81 -119
92 -130 10 -11 24 -31 31 -45 7 -14 21 -30 30 -37 10 -7 23 -26 30 -43 7 -16
16 -30 20 -30 5 0 19 -17 31 -37 13 -21 27 -42 31 -48 5 -5 41 -59 80 -120 40
-60 76 -114 80 -120 8 -9 70 -106 199 -305 27 -41 53 -80 57 -86 5 -5 15 -21
22 -35 7 -13 16 -26 19 -29 4 -3 33 -44 64 -92 32 -48 62 -90 68 -93 5 -4 20
-27 33 -53 13 -26 35 -59 47 -74 46 -52 89 -115 89 -131 0 -26 -17 -30 -149
-38 -69 -5 -145 -11 -168 -15 -30 -4 -58 0 -100 15 -33 12 -69 21 -81 21 -11
0 -24 5 -27 10 -3 6 -30 10 -59 10 -28 0 -56 4 -61 9 -10 9 -31 12 -185 30
-41 5 -95 14 -120 21 -93 24 -335 59 -407 60 -28 0 -55 4 -58 10 -3 5 -16 9
-28 8 -12 0 -80 9 -152 20 -71 12 -193 31 -270 43 -77 11 -198 31 -270 44 -71
13 -269 47 -440 74 -170 28 -389 65 -485 81 -96 17 -218 35 -270 40 -52 5
-126 14 -165 20 -38 6 -110 15 -160 20 -49 4 -110 13 -135 20 -25 6 -83 15
-130 20 -47 5 -110 14 -140 20 -30 6 -100 15 -155 21 -55 5 -140 14 -190 19
-49 5 -166 12 -260 16 -93 3 -174 10 -180 15 -5 5 -46 9 -91 9 -46 0 -86 5
-89 10 -3 6 -48 10 -99 10 -50 0 -96 4 -101 9 -10 10 -95 18 -280 27 -60 3
-114 9 -120 15 -5 5 -42 9 -82 9 -60 0 -77 4 -93 20 -23 23 -26 62 -6 82 17
18 425 25 457 8 11 -6 64 -13 117 -16 53 -2 140 -8 192 -14 153 -17 441 -42
680 -59 69 -5 154 -15 190 -21 36 -6 90 -13 120 -16 30 -3 64 -9 75 -14 11 -5
40 -12 65 -15 25 -3 77 -10 115 -16 67 -9 136 -18 303 -39 42 -5 105 -14 140
-20 34 -5 89 -14 122 -20 33 -5 87 -14 120 -20 33 -5 86 -14 118 -20 31 -5 86
-14 122 -20 36 -5 92 -15 125 -21 33 -5 89 -14 125 -19 87 -12 173 -27 240
-40 30 -6 81 -15 113 -20 31 -6 84 -14 117 -20 33 -5 87 -14 120 -20 33 -5 87
-14 120 -20 33 -5 87 -14 120 -20 33 -5 87 -14 120 -20 33 -5 86 -14 118 -19
57 -10 103 -20 177 -41 22 -6 72 -15 110 -20 65 -9 100 -14 253 -40 78 -13
149 -27 200 -39 119 -30 204 -49 282 -61 180 -29 253 -52 273 -86 4 -8 19 -14
32 -14 22 0 25 4 24 38 0 20 -9 51 -19 67 -11 17 -27 44 -36 60 -9 17 -20 32
-23 35 -4 3 -33 44 -64 92 -32 48 -62 90 -68 93 -5 4 -21 27 -35 53 -14 26
-40 72 -59 102 -19 30 -44 74 -55 98 -12 23 -27 42 -35 42 -8 0 -18 12 -21 28
-4 15 -17 38 -29 52 -13 14 -33 45 -45 70 -24 49 -77 120 -97 133 -7 4 -13 14
-13 21 0 8 -7 19 -16 27 -8 7 -31 38 -51 68 -20 31 -51 72 -68 91 -18 19 -43
55 -57 80 -14 25 -35 54 -47 64 -12 11 -21 23 -21 27 0 12 -57 94 -75 109 -9
8 -31 36 -49 64 -34 54 -77 118 -112 170 -12 17 -75 85 -140 151 -101 101
-130 125 -189 152 -118 53 -198 86 -230 94 -16 4 -61 17 -100 29 -38 12 -88
26 -110 30 -22 5 -65 13 -95 20 -30 6 -89 15 -130 20 -41 5 -104 14 -140 20
-78 13 -192 27 -320 40 -95 10 -201 21 -372 40 -51 6 -158 15 -238 20 -80 5
-201 14 -270 20 -281 23 -394 31 -575 39 -104 5 -201 11 -215 15 -25 6 -414
18 -460 15 -14 -2 -112 -2 -217 -1 -302 2 -316 2 -908 -8 -860 -15 -1388 -36
-1510 -61 -33 -6 -116 -14 -185 -16 -68 -2 -130 -9 -137 -14 -8 -7 -18 -7 -32
1 -11 6 -31 8 -43 5 -13 -2 -70 -10 -128 -16 -115 -13 -190 -23 -290 -39 -36
-6 -94 -15 -130 -20 -36 -5 -85 -14 -110 -20 -25 -6 -70 -15 -100 -20 -30 -5
-80 -14 -110 -20 -30 -6 -84 -15 -120 -20 -156 -21 -252 -43 -345 -82 -27 -11
-70 -27 -95 -36 -25 -8 -58 -26 -73 -39 -16 -13 -34 -23 -41 -23 -21 0 -216
-213 -262 -285 -10 -16 -26 -35 -35 -42 -9 -7 -22 -26 -29 -43 -7 -16 -16 -30
-21 -30 -4 0 -10 -9 -14 -19 -3 -10 -16 -30 -28 -42 -13 -13 -58 -76 -101
-139 -42 -63 -88 -131 -102 -150 -13 -19 -29 -42 -34 -50 -5 -8 -21 -32 -35
-53 -13 -21 -32 -52 -41 -69 -9 -17 -20 -36 -25 -42 -5 -6 -31 -45 -59 -86
-27 -41 -53 -79 -57 -85 -5 -5 -23 -32 -40 -60 -18 -27 -36 -54 -40 -60 -5 -5
-24 -35 -42 -65 -19 -30 -50 -79 -70 -109 -20 -29 -40 -61 -46 -70 -23 -38
-60 -96 -65 -101 -27 -25 -180 -294 -180 -315 0 -10 79 -5 85 5 3 6 21 10 39
10 17 0 36 4 41 9 16 15 105 22 535 41 14 1 45 -2 70 -7 39 -7 45 -11 45 -32
0 -20 -8 -26 -45 -37 -59 -18 -165 -18 -182 -1 -12 14 -12 14 -138 -14 -25 -6
-60 -13 -78 -16 -18 -3 -35 -9 -38 -14 -3 -5 -25 -9 -49 -9 -24 0 -47 -4 -50
-10 -3 -5 -26 -10 -50 -10 -24 0 -47 -5 -51 -11 -4 -6 -17 -8 -33 -4 -34 9
-131 24 -204 31 -31 4 -57 11 -58 18 -5 49 11 88 67 166 19 26 34 54 34 63 0
9 5 19 10 22 6 4 22 30 37 58 14 29 29 54 33 57 4 3 17 23 28 46 11 22 28 46
36 53 9 8 16 19 16 25 0 7 24 49 53 93 28 45 61 96 72 114 11 18 25 41 31 51
6 10 18 26 27 36 10 10 17 23 17 29 0 5 9 18 21 29 12 10 32 40 44 65 13 25
31 51 39 58 9 8 16 19 16 25 0 17 79 136 90 136 6 0 10 7 10 14 0 8 15 36 33
62 17 25 37 53 42 62 6 10 22 32 38 50 15 18 27 36 27 41 0 5 10 19 23 32 13
13 40 50 61 82 20 31 41 57 47 57 5 0 9 8 9 18 0 10 11 29 24 41 14 13 30 36
36 52 7 16 15 29 19 29 4 0 15 16 25 35 10 19 27 37 37 40 11 4 19 14 19 24 0
9 18 35 40 56 22 21 40 44 40 50 0 18 162 170 225 211 67 43 76 47 260 111
136 48 175 58 265 73 30 5 75 14 100 21 25 6 71 15 103 20 31 5 85 14 120 19
34 6 91 15 127 20 36 5 94 14 130 20 71 12 187 25 350 40 58 5 148 14 200 20
201 22 323 31 545 41 127 5 338 14 470 19 132 6 495 14 807 18 311 4 570 11
574 15 5 4 92 5 194 2 102 -3 340 -10 530 -15z m-3475 -1899 c237 -11 410 -24
545 -41 47 -6 119 -13 160 -16 50 -4 78 -10 83 -20 6 -11 23 -13 77 -8 52 5
74 3 86 -7 11 -9 47 -15 103 -16 47 -1 133 -6 191 -12 112 -12 246 -25 425
-41 177 -15 296 -29 360 -40 33 -6 89 -15 125 -20 122 -16 135 -21 138 -61 3
-31 -1 -37 -37 -57 -38 -22 -49 -23 -163 -18 -130 5 -261 18 -368 36 -36 6
-112 15 -170 20 -58 5 -148 14 -200 20 -52 6 -138 15 -190 20 -52 5 -133 14
-180 20 -47 6 -128 15 -180 20 -52 5 -129 14 -170 20 -92 14 -304 28 -600 39
-124 5 -279 15 -345 21 -66 7 -142 12 -170 11 -114 -3 -264 -1 -500 7 -148 4
-276 4 -315 -1 -36 -5 -146 -11 -245 -13 -214 -4 -228 1 -223 69 l3 42 50 8
c68 11 1074 35 1305 31 102 -2 284 -8 405 -13z m4365 -389 c8 -1 59 2 113 4
74 4 107 2 130 -9 56 -26 615 -40 643 -16 10 8 18 8 27 1 16 -14 232 -29 677
-48 74 -3 140 -10 147 -16 7 -6 46 -12 86 -14 69 -3 129 -11 247 -34 30 -5 80
-14 110 -18 80 -12 111 -30 126 -75 11 -32 11 -39 0 -43 -19 -7 -207 2 -296
16 -116 17 -229 30 -300 36 -36 2 -74 9 -85 14 -24 12 -203 19 -619 26 -223 3
-314 8 -324 17 -11 9 -129 13 -466 14 -627 4 -1971 4 -2206 1 -191 -3 -195 -3
-198 18 -4 28 64 103 108 119 27 10 261 12 1050 10 558 -2 1022 -3 1030 -3z
m-2703 -27 c88 -7 113 -22 113 -71 0 -44 -30 -56 -122 -50 -100 8 -86 8 -573
-4 -214 -5 -473 -14 -575 -20 -102 -6 -313 -15 -470 -20 -533 -18 -804 -34
-980 -60 -71 -10 -101 -12 -152 -9 -13 1 -41 -5 -63 -11 -37 -12 -125 -21
-340 -35 -49 -3 -97 -8 -105 -12 -8 -3 -44 -10 -80 -14 -36 -5 -94 -13 -130
-19 -36 -6 -83 -13 -105 -16 -22 -3 -44 -10 -49 -15 -6 -5 -50 -9 -98 -9 -96
0 -106 6 -94 55 7 27 51 53 126 74 25 7 59 17 76 22 17 5 38 9 47 9 10 0 25 4
35 10 15 9 83 25 217 52 28 5 100 14 160 19 61 5 160 14 220 19 61 6 160 15
220 20 61 6 160 15 220 21 61 5 202 14 315 19 113 6 288 14 390 20 102 6 287
13 412 18 124 4 230 10 234 15 9 8 1026 1 1151 -8z m5678 -227 c50 -6 109 -12
132 -15 28 -3 52 -15 77 -38 65 -59 44 -69 -120 -60 -60 3 -206 9 -324 13
-200 7 -280 19 -280 41 0 23 34 44 100 61 81 20 227 20 415 -2z m-3675 -60
c470 -4 963 -12 1095 -17 228 -10 336 -16 730 -41 94 -6 247 -15 340 -20 159
-9 251 -16 520 -39 110 -10 191 -21 315 -41 81 -13 200 -28 304 -38 65 -6 81
-11 93 -29 14 -21 11 -24 -61 -78 -42 -31 -76 -60 -76 -65 0 -6 -9 -10 -20
-10 -28 0 -87 -40 -99 -68 -7 -13 -23 -25 -41 -28 -16 -4 -32 -15 -35 -25 -4
-11 -16 -19 -28 -19 -14 0 -28 -11 -39 -30 -12 -21 -25 -30 -43 -30 -18 0 -31
-9 -43 -30 -11 -19 -25 -30 -39 -30 -13 0 -24 -8 -28 -20 -4 -12 -15 -20 -29
-20 -13 0 -44 -18 -70 -41 -49 -43 -99 -66 -238 -109 -29 -9 -46 -8 -73 1 -27
10 -45 10 -85 1 -66 -15 -364 -16 -392 -1 -20 11 -95 15 -453 24 -99 3 -189
10 -200 15 -21 10 -131 14 -870 30 -924 21 -2753 10 -3265 -19 -96 -5 -249
-12 -339 -15 -91 -3 -172 -9 -180 -13 -23 -11 -374 -29 -471 -24 -14 1 -70 -4
-125 -10 -177 -19 -434 -11 -521 18 -16 6 -44 18 -62 27 -17 9 -41 16 -54 16
-13 0 -45 14 -73 30 -27 16 -67 38 -87 50 -21 11 -38 24 -38 28 0 5 -18 18
-40 31 -22 12 -45 30 -52 40 -7 10 -26 26 -43 36 -29 18 -56 40 -163 133 -27
24 -69 55 -93 69 -24 13 -51 31 -59 38 -8 8 -35 32 -60 54 l-45 40 30 10 c17
6 39 16 50 23 11 7 52 16 90 20 39 5 106 13 150 19 81 10 174 20 345 39 129
15 348 28 630 40 129 5 309 14 400 20 357 22 557 30 832 35 171 2 296 8 307
15 13 7 277 10 793 10 503 0 778 4 788 10 8 6 26 7 40 3 14 -4 410 -10 880
-15z m-6420 -93 c47 -3 94 -10 105 -15 11 -5 47 -11 80 -14 33 -2 79 -9 103
-15 93 -24 128 -33 160 -38 18 -3 35 -9 38 -14 3 -5 14 -9 25 -9 10 0 27 -4
37 -9 29 -14 87 -31 110 -31 11 0 24 -4 27 -10 3 -5 15 -10 25 -10 11 0 35 -9
55 -20 20 -11 42 -20 49 -20 19 0 282 -131 336 -168 25 -17 54 -40 64 -51 11
-12 24 -21 31 -21 7 0 20 -9 30 -20 10 -11 23 -20 30 -20 6 0 24 -13 40 -30
16 -16 34 -30 40 -30 6 0 27 -16 46 -36 18 -20 44 -40 57 -45 12 -5 22 -15 22
-24 0 -9 9 -15 24 -15 13 0 30 -7 37 -17 8 -9 33 -25 57 -35 23 -10 42 -25 42
-33 0 -9 10 -15 24 -15 14 0 28 -4 31 -10 3 -5 17 -10 30 -10 13 0 27 -4 30
-10 3 -5 17 -10 30 -10 13 0 26 -4 29 -9 6 -9 45 -18 126 -27 25 -3 49 -10 54
-15 13 -12 719 -12 732 1 5 5 99 11 209 14 110 3 283 10 385 16 577 32 1155
47 2120 55 411 4 622 2 635 -5 12 -6 185 -12 450 -15 237 -2 536 -9 665 -15
129 -6 347 -13 485 -16 140 -2 254 -9 259 -14 6 -6 88 -10 192 -10 111 0 185
-4 189 -10 4 -6 103 -10 265 -10 162 0 261 4 265 10 3 6 26 10 50 10 24 0 47
5 50 10 3 6 21 10 40 10 19 0 37 5 40 10 3 6 15 10 26 10 21 0 200 88 254 124
17 11 46 35 65 52 19 18 53 42 76 53 22 12 55 37 74 56 19 19 37 35 41 35 5 0
28 14 52 30 25 17 49 30 54 30 6 0 18 9 28 20 10 11 28 20 39 20 22 0 151 64
161 80 7 11 189 100 204 100 6 0 19 4 29 9 9 6 62 24 117 42 55 17 109 35 120
39 58 21 95 30 123 30 17 0 34 5 37 10 3 6 21 10 40 10 19 0 37 5 40 10 3 6
21 10 40 10 19 0 37 5 40 10 3 6 30 10 60 10 30 0 57 5 60 10 3 6 44 10 90 10
46 0 87 5 90 10 4 6 87 10 215 10 128 0 211 -4 215 -10 3 -5 39 -10 80 -10 41
0 77 -4 80 -10 3 -5 26 -10 50 -10 24 0 47 -4 50 -10 3 -5 21 -10 40 -10 19 0
37 -5 40 -10 3 -5 21 -10 40 -10 19 0 37 -4 40 -10 3 -5 17 -10 30 -10 13 0
27 -4 30 -10 3 -5 15 -10 25 -10 11 0 35 -9 55 -20 20 -11 44 -20 54 -20 10 0
24 -7 31 -15 7 -8 50 -33 96 -56 46 -23 89 -47 95 -55 6 -8 17 -14 23 -14 7 0
25 -13 41 -30 16 -16 38 -30 49 -30 20 0 56 -27 56 -42 0 -10 16 -27 41 -43
74 -47 99 -67 99 -78 0 -7 18 -31 40 -52 22 -21 40 -44 40 -50 0 -6 12 -22 26
-36 14 -13 34 -42 44 -65 11 -22 26 -47 35 -54 8 -7 15 -19 15 -27 0 -8 27
-68 60 -135 33 -66 60 -128 60 -138 0 -11 5 -22 10 -25 6 -3 10 -13 10 -20 0
-8 14 -43 30 -77 17 -34 30 -69 30 -79 0 -10 5 -21 10 -24 6 -3 10 -17 10 -30
0 -13 5 -27 10 -30 6 -3 10 -16 10 -29 0 -12 3 -26 7 -30 12 -12 33 -80 33
-108 0 -15 4 -29 9 -32 5 -3 11 -29 15 -58 13 -109 18 -138 27 -144 5 -3 9
-25 9 -49 0 -24 5 -47 10 -50 6 -3 10 -30 10 -60 0 -30 5 -57 10 -60 6 -4 10
-55 10 -120 0 -65 4 -116 10 -120 13 -8 14 -637 1 -651 -5 -5 -12 -49 -15 -99
-7 -126 -15 -197 -26 -220 -5 -11 -11 -41 -14 -67 -14 -119 -19 -144 -27 -152
-5 -6 -9 -29 -9 -52 0 -24 -4 -45 -9 -48 -5 -3 -11 -20 -14 -38 -9 -56 -25
-110 -51 -183 -14 -38 -26 -80 -26 -92 0 -12 -4 -25 -10 -28 -5 -3 -10 -16
-10 -28 0 -22 -36 -127 -80 -237 -12 -30 -28 -72 -36 -93 -21 -56 -94 -198
-110 -214 -8 -8 -14 -21 -14 -29 0 -23 -76 -167 -99 -188 -12 -11 -21 -24 -21
-31 0 -6 -13 -24 -30 -40 -16 -16 -30 -33 -30 -39 0 -17 -379 -407 -512 -527
-35 -31 -81 -66 -103 -77 -22 -11 -49 -29 -59 -41 -11 -12 -23 -21 -29 -21 -5
0 -29 -13 -54 -30 -24 -16 -47 -30 -50 -30 -4 0 -14 -7 -24 -16 -20 -18 -226
-124 -241 -124 -6 0 -37 -14 -70 -30 -32 -16 -68 -30 -79 -30 -11 0 -37 -9
-59 -20 -22 -11 -48 -20 -58 -20 -10 0 -22 -3 -25 -7 -13 -12 -141 -52 -169
-53 -15 0 -30 -4 -33 -10 -3 -6 -15 -10 -27 -10 -11 0 -48 -9 -82 -19 -33 -11
-81 -25 -106 -31 -25 -6 -59 -16 -76 -21 -17 -5 -42 -9 -57 -9 -14 0 -29 -4
-32 -10 -3 -5 -21 -10 -40 -10 -19 0 -37 -4 -40 -10 -3 -6 -30 -10 -60 -10
-30 0 -57 -4 -60 -10 -3 -5 -30 -10 -59 -10 -28 0 -56 -4 -62 -9 -5 -5 -45
-12 -89 -15 -152 -10 -210 -17 -230 -26 -11 -5 -56 -12 -100 -15 -44 -3 -129
-10 -190 -15 -60 -6 -166 -15 -235 -20 -69 -5 -177 -15 -240 -21 -63 -6 -224
-12 -357 -12 -178 -2 -245 -5 -254 -14 -7 -7 -26 -13 -41 -13 -32 0 -158 -62
-203 -100 -17 -14 -95 -58 -267 -149 -43 -22 -108 -52 -145 -65 -37 -13 -94
-34 -126 -46 -44 -16 -67 -20 -95 -14 -20 4 -45 6 -54 5 -10 -1 -18 3 -18 8 0
6 6 11 14 11 8 0 30 9 48 20 19 11 61 28 94 39 58 18 157 66 234 113 78 47
200 129 205 139 4 5 30 21 58 35 28 15 62 34 77 44 124 84 139 90 270 102 85
8 167 13 565 33 61 3 119 10 130 15 11 5 63 12 115 14 170 9 245 17 265 26 19
9 51 13 200 26 33 2 69 9 80 14 11 5 45 11 75 14 30 3 82 10 115 15 57 10 92
16 218 42 28 5 72 13 97 16 25 3 49 9 54 14 6 5 23 9 40 9 30 0 86 15 118 31
10 5 31 9 47 9 17 0 33 5 36 10 3 6 21 10 40 10 19 0 37 5 40 10 3 6 19 10 36
10 16 0 37 4 47 9 9 5 37 15 62 22 25 7 49 16 54 21 6 4 20 8 32 8 13 0 26 4
29 10 3 6 15 10 25 10 11 0 35 9 55 20 20 11 40 20 45 20 6 0 39 13 73 30 35
16 68 30 73 30 13 0 290 141 339 173 22 14 49 35 61 46 12 12 25 21 31 21 5 0
22 13 38 30 16 16 34 30 40 30 6 0 37 27 70 60 33 33 65 60 71 60 13 0 161
148 177 176 5 9 35 43 67 75 32 33 68 75 80 94 12 19 25 35 28 35 4 0 18 17
32 38 14 20 29 42 33 47 19 24 78 121 83 137 3 10 11 18 18 18 8 0 16 12 19
28 3 15 22 48 41 72 20 25 36 51 36 58 0 7 22 56 48 110 43 86 96 238 152 432
10 36 26 90 35 120 10 30 21 75 26 100 4 25 13 65 19 90 12 47 25 112 35 170
4 19 10 44 15 55 19 43 39 266 51 570 8 196 8 278 0 301 -6 17 -11 41 -11 55
0 43 -47 -53 -70 -144 -32 -127 -43 -161 -52 -171 -4 -6 -8 -24 -8 -41 0 -17
-4 -35 -8 -41 -5 -5 -15 -29 -22 -54 -17 -56 -75 -178 -95 -200 -8 -9 -15 -21
-15 -27 0 -5 -9 -18 -20 -28 -11 -10 -20 -22 -20 -27 0 -23 -145 -188 -164
-188 -7 0 -30 -18 -51 -40 -21 -22 -43 -40 -49 -40 -5 0 -35 -25 -67 -55 -32
-30 -64 -55 -72 -55 -9 0 -28 -11 -44 -24 -31 -26 -153 -86 -174 -86 -8 0 -29
-9 -47 -20 -18 -11 -40 -20 -50 -20 -10 0 -22 -4 -28 -9 -10 -10 -67 -20 -164
-27 -36 -3 -69 -10 -74 -15 -6 -5 -42 -9 -81 -9 -39 0 -76 -5 -82 -11 -7 -7
-51 -9 -129 -6 -132 6 -161 11 -341 57 -21 5 -56 13 -78 18 -22 5 -71 25 -108
45 -38 21 -75 37 -83 37 -7 0 -29 9 -49 20 -20 11 -42 20 -49 20 -17 0 -74 28
-81 41 -4 5 -25 18 -49 29 -23 10 -49 26 -56 35 -7 8 -18 15 -25 15 -6 0 -20
9 -30 20 -10 11 -23 20 -29 20 -7 0 -38 27 -71 60 -33 33 -65 60 -72 60 -8 0
-17 10 -22 23 -5 12 -30 42 -55 67 -25 24 -46 49 -46 56 0 6 -7 17 -15 24 -9
7 -25 33 -35 56 -11 24 -24 46 -30 49 -12 7 -120 222 -120 238 0 7 -18 35 -40
62 -68 87 -80 103 -80 112 0 5 -18 27 -40 48 -22 21 -40 44 -40 49 0 14 -162
176 -175 176 -6 0 -29 18 -50 40 -21 22 -44 40 -50 40 -6 0 -24 14 -40 30 -16
17 -34 30 -41 30 -6 0 -17 7 -24 16 -8 8 -29 22 -49 30 -20 8 -45 23 -56 34
-20 18 -137 76 -245 120 -128 52 -147 59 -185 71 -22 6 -48 15 -57 20 -10 5
-27 9 -38 9 -11 0 -39 9 -63 19 -23 11 -58 22 -77 24 -19 3 -55 11 -80 17 -25
7 -79 14 -120 17 -41 2 -79 9 -84 14 -6 5 -38 9 -72 9 -35 0 -66 5 -69 10 -3
6 -44 10 -90 10 -46 0 -87 5 -90 10 -3 6 -44 10 -90 10 -46 0 -87 5 -90 10 -4
6 -64 10 -149 10 -78 0 -146 4 -152 9 -11 12 -174 20 -534 26 -146 3 -274 10
-285 15 -62 30 -1801 27 -3100 -5 -121 -3 -224 -10 -229 -15 -6 -6 -52 -10
-102 -10 -51 0 -96 -4 -99 -10 -3 -6 -52 -10 -110 -10 -58 0 -107 -4 -110 -10
-3 -5 -39 -10 -79 -10 -39 0 -76 -4 -81 -9 -6 -5 -53 -11 -105 -15 -52 -3
-117 -10 -145 -15 -27 -5 -70 -12 -95 -16 -25 -4 -54 -10 -65 -15 -11 -5 -33
-11 -50 -14 -16 -2 -50 -10 -75 -16 -25 -6 -62 -14 -83 -17 -20 -3 -40 -9 -43
-14 -3 -5 -16 -9 -29 -9 -13 0 -27 -4 -30 -10 -3 -5 -17 -10 -30 -10 -13 0
-27 -4 -30 -10 -3 -5 -21 -10 -39 -10 -17 0 -36 -4 -42 -8 -5 -5 -29 -14 -54
-21 -25 -7 -53 -17 -62 -22 -10 -5 -27 -9 -37 -9 -11 0 -23 -4 -26 -10 -3 -5
-14 -10 -23 -10 -22 0 -197 -87 -212 -106 -7 -8 -18 -14 -24 -14 -7 0 -25 -13
-41 -30 -16 -16 -34 -30 -40 -30 -7 0 -20 -9 -30 -20 -10 -11 -23 -20 -29 -20
-7 0 -34 -22 -61 -50 -27 -27 -55 -50 -62 -50 -7 0 -13 -5 -13 -11 0 -6 -57
-70 -127 -141 -71 -71 -131 -137 -134 -146 -4 -10 -14 -24 -24 -32 -9 -7 -28
-35 -41 -62 -13 -26 -31 -48 -39 -48 -9 0 -15 -10 -16 -22 0 -13 -9 -36 -19
-53 -11 -16 -31 -51 -45 -77 -13 -26 -29 -49 -35 -53 -5 -3 -18 -25 -28 -48
-11 -23 -31 -53 -46 -66 -14 -14 -26 -30 -26 -36 0 -7 -9 -20 -20 -30 -11 -10
-20 -23 -20 -29 0 -15 -52 -66 -67 -66 -7 0 -13 -10 -13 -22 0 -25 -46 -78
-68 -78 -8 0 -30 -18 -49 -40 -19 -22 -40 -40 -47 -40 -6 0 -32 -21 -56 -46
-25 -26 -64 -55 -87 -65 -23 -11 -45 -24 -48 -29 -9 -14 -224 -120 -245 -120
-10 0 -22 -4 -25 -10 -3 -5 -21 -10 -40 -10 -19 0 -37 -4 -40 -10 -3 -5 -18
-10 -33 -10 -15 0 -52 -7 -82 -16 -159 -47 -458 -49 -640 -5 -118 28 -253 68
-295 86 -108 48 -264 127 -275 140 -7 8 -17 15 -23 15 -30 0 -293 261 -347
345 -8 12 -31 47 -51 76 -43 65 -89 153 -89 172 0 8 -8 25 -18 38 -11 13 -22
48 -25 78 -4 29 -13 64 -22 77 -8 13 -15 35 -15 49 0 14 -9 33 -20 42 -14 12
-20 30 -20 60 0 28 -6 48 -18 60 -11 10 -23 27 -27 38 -8 16 -10 13 -13 -20
-2 -22 -8 -44 -13 -49 -12 -13 -12 -223 1 -231 6 -4 10 -55 10 -120 0 -65 4
-116 10 -120 6 -3 10 -39 10 -80 0 -41 5 -77 10 -80 6 -3 10 -30 10 -60 0 -30
5 -57 10 -60 6 -3 10 -26 10 -51 0 -24 5 -44 10 -44 6 0 10 -18 10 -40 0 -22
5 -40 10 -40 6 0 10 -18 10 -40 0 -22 5 -40 10 -40 6 0 10 -18 10 -39 0 -22 5
-43 10 -46 6 -3 10 -22 10 -41 0 -19 5 -34 10 -34 6 0 10 -18 10 -39 0 -22 5
-43 10 -46 6 -3 10 -17 10 -30 0 -13 5 -27 10 -30 6 -3 10 -21 10 -40 0 -19 5
-37 10 -40 6 -3 10 -21 10 -40 0 -19 5 -37 10 -40 6 -3 10 -16 10 -29 0 -12 4
-26 8 -31 5 -6 14 -30 22 -55 13 -46 25 -76 79 -193 17 -37 31 -73 31 -80 0
-17 43 -102 62 -125 8 -9 22 -33 31 -53 9 -20 23 -42 32 -49 8 -7 15 -18 15
-25 0 -7 7 -18 15 -25 9 -7 24 -32 35 -54 10 -23 30 -52 44 -65 14 -14 26 -30
26 -36 0 -6 14 -24 30 -40 17 -16 30 -33 30 -39 0 -14 228 -246 274 -279 22
-15 44 -37 50 -50 7 -12 23 -23 37 -25 15 -2 39 -16 55 -33 15 -16 33 -29 39
-29 6 0 24 -14 40 -30 16 -16 34 -30 40 -30 6 0 21 -10 33 -22 11 -13 38 -32
59 -43 21 -10 45 -24 53 -31 27 -22 339 -174 408 -198 160 -58 389 -130 487
-154 22 -6 65 -18 95 -28 52 -16 111 -28 190 -40 19 -3 44 -9 55 -14 11 -5 43
-11 70 -14 118 -13 151 -18 170 -26 11 -5 49 -11 85 -14 36 -3 88 -10 115 -16
84 -19 254 -45 390 -60 50 -6 126 -15 170 -20 85 -11 211 -24 365 -39 52 -5
120 -12 150 -15 30 -4 145 -10 256 -15 225 -10 228 -11 327 -93 33 -27 94 -66
136 -85 42 -20 83 -40 91 -44 8 -5 34 -18 58 -29 105 -50 129 -62 160 -82 65
-40 235 -108 301 -119 134 -21 171 -56 49 -45 -237 21 -267 30 -516 147 -45
21 -86 39 -91 39 -5 0 -36 17 -68 39 -70 46 -229 127 -292 149 -33 11 -100 16
-236 19 -289 6 -640 28 -835 53 -47 6 -123 15 -170 20 -131 14 -254 33 -405
60 -33 6 -85 13 -115 16 -30 3 -64 9 -75 14 -11 5 -42 11 -70 14 -27 3 -77 9
-110 14 -86 13 -485 117 -569 148 -39 14 -129 46 -201 70 -120 41 -213 79
-308 125 -22 11 -47 19 -57 19 -10 0 -23 7 -30 15 -7 9 -33 25 -56 35 -24 11
-46 25 -49 30 -4 6 -25 23 -47 38 -23 15 -51 34 -64 42 -31 21 -84 65 -153
128 -32 28 -62 52 -68 52 -5 0 -22 13 -38 30 -16 16 -34 30 -41 30 -6 0 -29
21 -50 46 -22 25 -78 87 -126 138 -49 51 -88 97 -88 103 0 5 -9 18 -20 28 -11
10 -20 23 -20 30 0 6 -18 29 -40 50 -22 21 -40 43 -40 47 0 5 -18 37 -40 70
-22 34 -40 67 -40 74 0 6 -6 17 -14 23 -15 13 -146 266 -146 282 0 6 -9 29
-20 51 -11 23 -20 48 -20 55 0 7 -9 27 -20 45 -11 18 -20 43 -20 55 0 12 -4
25 -10 28 -5 3 -10 15 -10 25 0 11 -8 34 -18 52 -10 18 -24 53 -31 78 -7 25
-17 53 -22 62 -5 10 -9 27 -9 37 0 11 -4 23 -10 26 -5 3 -10 21 -10 40 0 19
-4 37 -10 40 -5 3 -10 17 -10 30 0 13 -4 27 -10 30 -5 3 -10 26 -10 50 0 24
-4 47 -10 50 -5 3 -10 21 -10 40 0 19 -4 37 -10 40 -5 3 -10 30 -10 60 0 30
-4 57 -10 60 -5 3 -10 30 -10 60 0 30 -4 57 -10 60 -5 3 -10 39 -10 80 0 41
-4 77 -10 80 -6 4 -10 58 -10 131 0 76 -4 124 -10 124 -6 0 -10 128 -10 364 0
233 4 367 10 371 6 3 10 39 10 79 0 39 4 76 9 82 5 5 11 29 14 54 3 25 10 65
17 90 6 25 14 60 17 78 3 18 9 35 14 38 5 3 9 20 9 39 0 19 5 37 10 40 6 3 10
19 10 36 0 16 4 37 10 47 9 17 35 95 60 182 8 25 16 50 20 55 4 6 12 30 19 55
7 25 17 53 22 62 5 10 9 23 9 30 0 17 88 195 100 203 5 3 18 25 28 48 11 23
31 53 46 66 14 14 26 30 26 36 0 7 9 20 20 30 11 10 20 23 20 29 0 14 211 226
225 226 6 0 24 14 40 30 16 17 33 30 39 30 5 0 18 7 28 17 40 36 231 132 343
173 50 18 99 36 110 40 11 4 40 13 65 20 25 7 55 16 68 21 13 5 35 9 50 9 16
0 32 4 37 9 6 5 28 11 50 15 125 17 155 23 162 29 7 8 430 2 573 -8z m-2230
-1180 c0 -20 -8 -52 -18 -73 -10 -20 -28 -68 -39 -107 -12 -38 -29 -95 -39
-125 -9 -30 -20 -75 -25 -100 -4 -25 -13 -65 -19 -90 -27 -106 -48 -280 -58
-490 -4 -80 -9 -149 -11 -155 -2 -5 -1 -17 2 -25 4 -8 9 -134 11 -280 2 -146
9 -299 15 -340 7 -41 14 -100 17 -130 3 -30 10 -59 15 -64 5 -6 9 -33 9 -61 0
-28 4 -55 9 -61 5 -5 11 -27 14 -49 4 -22 11 -65 17 -95 6 -30 13 -69 14 -85
2 -17 13 -60 24 -95 11 -36 35 -112 52 -170 18 -58 40 -127 50 -155 11 -27 35
-99 55 -159 20 -60 44 -125 52 -145 8 -20 28 -65 43 -101 15 -36 37 -89 49
-117 12 -29 31 -76 44 -105 24 -56 113 -200 147 -235 11 -12 25 -34 32 -48 6
-14 15 -25 19 -25 5 0 13 -17 19 -39 11 -42 24 -57 55 -63 12 -2 22 -14 25
-28 8 -42 62 -109 90 -112 18 -2 26 -10 28 -28 2 -16 29 -50 75 -92 90 -84 76
-89 -18 -7 -38 34 -80 65 -92 70 -13 5 -23 14 -23 21 0 7 -58 73 -130 145 -71
73 -130 136 -130 140 0 5 -11 20 -24 34 -13 14 -33 44 -45 67 -11 22 -25 43
-31 47 -24 15 -140 215 -140 243 0 7 -12 36 -26 64 -14 28 -34 76 -44 107 -17
54 -32 91 -71 177 -11 23 -17 48 -14 57 4 8 -1 17 -9 20 -9 4 -16 16 -16 27 0
12 -7 34 -15 50 -23 44 -157 448 -166 503 -15 80 -27 140 -38 185 -6 23 -15
60 -21 82 -5 22 -15 59 -21 83 -6 23 -15 68 -20 100 -5 31 -14 85 -19 120 -25
144 -34 249 -61 642 -21 313 -10 618 24 682 9 18 17 37 17 42 0 26 61 99 269
323 64 69 91 75 91 23z m15561 -150 c64 -66 126 -139 138 -162 11 -23 25 -44
31 -48 5 -3 10 -17 10 -30 0 -13 5 -27 10 -30 6 -3 10 -30 10 -60 0 -30 5 -57
10 -60 6 -4 10 -113 10 -295 0 -182 -4 -291 -10 -295 -6 -3 -10 -52 -10 -110
0 -58 -4 -107 -10 -110 -5 -3 -10 -39 -10 -80 0 -41 -4 -77 -10 -80 -5 -3 -10
-35 -10 -70 0 -35 -4 -67 -10 -70 -5 -3 -10 -35 -10 -70 0 -35 -4 -67 -10 -70
-5 -3 -10 -26 -10 -50 0 -24 -4 -47 -10 -50 -5 -3 -10 -35 -10 -70 0 -35 -4
-67 -10 -70 -5 -3 -10 -26 -10 -50 0 -24 -4 -47 -10 -50 -5 -3 -10 -21 -10
-40 0 -19 -4 -37 -10 -40 -5 -3 -10 -19 -10 -36 0 -16 -4 -37 -9 -47 -13 -26
-31 -86 -31 -105 0 -10 -4 -25 -9 -35 -13 -26 -31 -86 -31 -105 0 -9 -9 -32
-20 -52 -11 -20 -20 -44 -20 -55 0 -10 -4 -22 -10 -25 -5 -3 -10 -17 -10 -30
0 -13 -4 -27 -10 -30 -5 -3 -10 -17 -10 -30 0 -13 -4 -27 -10 -30 -5 -3 -10
-16 -10 -27 0 -12 -9 -31 -20 -43 -11 -11 -51 -106 -90 -210 -93 -249 -202
-450 -333 -613 -34 -42 -89 -113 -122 -157 -62 -82 -300 -327 -347 -358 -31
-19 -48 -22 -48 -7 0 6 46 56 103 113 122 121 230 242 313 352 154 203 190
268 320 572 92 217 124 306 124 349 0 18 5 36 10 39 6 3 10 17 10 30 0 13 5
27 10 30 6 3 10 21 10 40 0 19 5 37 10 40 6 3 10 17 10 30 0 13 5 27 10 30 6
3 10 21 10 40 0 19 5 37 10 40 6 3 10 21 10 40 0 19 5 37 10 40 6 3 10 21 10
40 0 19 4 36 9 39 8 6 12 24 27 129 3 23 10 46 15 51 5 6 9 29 9 52 0 24 5 46
10 49 6 3 10 35 10 70 0 35 5 67 10 70 6 4 10 68 10 160 0 92 4 156 10 160 6
4 10 123 10 325 0 202 -4 321 -10 325 -6 3 -10 48 -10 100 0 52 -4 97 -10 100
-5 3 -10 35 -10 70 0 35 -4 67 -10 70 -5 3 -10 30 -10 60 0 30 -4 57 -10 60
-5 3 -10 26 -10 50 0 24 -4 47 -10 50 -5 3 -10 26 -10 50 0 24 -4 46 -9 49 -5
3 -11 20 -14 38 -4 18 -11 58 -17 88 -7 30 -14 82 -17 114 l-5 59 24 -19 c13
-10 76 -73 139 -139z m-7721 -270 c192 -4 291 -2 305 5 36 19 1300 -1 1319
-20 6 -6 55 -10 111 -10 56 0 105 -4 110 -9 6 -5 46 -12 90 -15 152 -10 210
-17 230 -26 11 -5 45 -12 75 -15 30 -3 96 -10 145 -15 50 -6 133 -15 185 -20
52 -5 124 -14 160 -20 36 -6 99 -15 140 -19 85 -10 135 -21 200 -45 25 -8 53
-16 63 -16 9 0 25 -4 35 -9 9 -5 37 -15 62 -22 64 -19 132 -53 154 -78 11 -11
26 -21 35 -21 9 0 30 -7 46 -16 71 -39 105 -54 124 -54 11 0 47 -18 80 -40 33
-22 65 -40 71 -40 33 0 258 -186 304 -251 7 -11 28 -36 47 -57 19 -20 56 -69
82 -108 44 -66 63 -106 97 -204 7 -19 17 -43 21 -52 5 -10 9 -25 9 -35 0 -19
18 -79 31 -105 5 -10 9 -31 9 -46 0 -16 3 -32 7 -36 16 -16 33 -85 33 -137 0
-30 5 -60 11 -66 12 -12 6 -245 -10 -368 -22 -174 -38 -253 -65 -322 -9 -24
-23 -61 -31 -83 -22 -58 -114 -241 -130 -257 -8 -7 -17 -22 -20 -33 -3 -11
-10 -20 -15 -20 -5 0 -12 -10 -15 -21 -8 -23 -185 -203 -218 -221 -12 -6 -44
-33 -71 -60 -51 -49 -93 -75 -258 -162 -85 -45 -220 -96 -252 -96 -9 0 -35 -9
-59 -19 -42 -19 -58 -24 -149 -42 -27 -5 -72 -14 -100 -19 -29 -6 -79 -15
-110 -20 -32 -6 -86 -15 -120 -21 -35 -6 -130 -13 -213 -15 -82 -2 -159 -9
-170 -14 -11 -5 -56 -12 -100 -15 -44 -3 -129 -10 -190 -15 -60 -6 -162 -13
-225 -16 -63 -3 -120 -10 -126 -15 -9 -7 -19 -6 -33 3 -16 10 -27 10 -54 0
-43 -15 -149 -16 -165 0 -9 9 -15 9 -24 0 -9 -9 -73 -12 -224 -12 -131 0 -215
-4 -219 -10 -8 -13 -162 -13 -170 0 -8 13 -62 13 -70 0 -9 -14 -2442 -13
-2450 0 -4 6 -76 10 -176 10 -99 0 -178 4 -190 10 -11 6 -81 13 -157 15 -216
7 -326 16 -336 26 -6 5 -42 9 -81 9 -39 0 -75 4 -81 9 -10 10 -109 18 -314 26
-69 3 -134 10 -145 15 -11 5 -38 11 -60 14 -48 6 -125 21 -180 35 -22 6 -58
14 -80 19 -22 5 -50 14 -62 20 -12 7 -62 25 -110 41 -75 25 -210 82 -263 112
-8 5 -40 22 -72 39 -31 16 -80 46 -108 67 -56 41 -320 300 -320 314 0 5 -11
21 -25 36 -30 33 -93 130 -101 155 -3 10 -9 18 -13 18 -7 0 -25 38 -76 155
-75 174 -97 304 -97 575 0 187 8 288 31 375 5 22 14 58 19 80 5 22 17 60 26
85 8 25 16 53 16 63 0 18 87 198 100 207 4 3 17 25 30 50 12 25 38 58 56 73
19 16 42 43 50 59 17 33 61 78 76 78 6 0 41 32 79 70 39 39 74 70 79 70 5 0
20 11 33 24 14 14 53 39 88 56 35 18 71 38 79 44 8 7 35 19 60 26 25 7 58 20
75 28 16 8 56 21 88 28 31 8 75 23 97 34 22 11 48 20 58 20 11 0 54 14 96 31
41 17 80 28 86 24 5 -3 22 1 37 8 15 8 53 17 83 21 102 12 185 29 201 43 8 7
28 13 42 13 15 0 36 6 47 12 16 10 24 10 40 0 24 -15 66 -16 75 -2 3 6 41 10
83 10 45 1 94 7 117 16 76 30 222 52 425 64 80 5 188 14 240 20 52 6 157 13
232 15 76 2 145 8 155 13 17 10 1027 8 1613 -3z m7196 -2217 c-4 -13 -9 -34
-12 -48 -3 -14 -9 -26 -15 -28 -5 -2 -9 -12 -9 -23 0 -10 -4 -19 -10 -19 -5 0
-10 -6 -10 -13 0 -19 -132 -279 -201 -396 -360 -611 -989 -1055 -1716 -1211
-76 -16 -228 -50 -338 -75 -110 -25 -297 -61 -415 -80 -118 -20 -242 -40 -275
-45 -92 -15 -222 -28 -555 -55 -538 -44 -571 -47 -576 -43 -5 6 123 23 271 38
646 62 1224 143 1495 208 69 17 143 33 165 37 22 4 85 20 140 35 55 16 138 38
185 50 223 55 565 203 784 338 188 115 407 306 512 447 21 28 41 52 44 55 3 3
31 36 63 73 122 146 351 515 443 714 30 64 41 80 30 41z m-1386 -7 c67 -10
190 -50 190 -61 0 -5 10 -12 21 -15 30 -10 104 -80 131 -124 12 -20 25 -38 29
-41 10 -8 67 -124 84 -172 10 -29 15 -83 15 -168 0 -112 -3 -134 -29 -207 -32
-93 -84 -177 -135 -219 -146 -120 -197 -146 -306 -158 -30 -3 -70 -8 -88 -12
-38 -7 -85 4 -213 52 -59 21 -119 67 -194 147 -99 106 -109 121 -144 225 -29
83 -32 102 -28 175 7 119 20 174 55 244 45 89 76 131 139 191 64 61 118 91
223 121 41 12 86 26 100 31 25 9 40 8 150 -9z m-11667 -22 c37 -13 74 -36 96
-58 20 -20 69 -62 109 -94 47 -37 72 -64 72 -77 0 -12 7 -23 15 -27 16 -5 31
-36 66 -128 15 -39 19 -77 19 -173 0 -113 -3 -132 -32 -219 -22 -64 -39 -98
-50 -101 -9 -2 -24 -22 -32 -43 -9 -21 -23 -39 -31 -39 -9 0 -15 -9 -15 -24 0
-15 -11 -33 -30 -48 -17 -13 -43 -33 -58 -44 -70 -55 -298 -100 -381 -76 -20
6 -61 18 -92 27 -31 9 -80 32 -110 50 -29 19 -58 35 -65 35 -6 0 -40 30 -75
68 -74 77 -139 203 -147 284 -2 26 -9 51 -13 54 -12 7 -11 121 1 129 6 3 10
25 10 48 0 23 9 67 20 97 11 30 20 63 20 73 0 10 7 20 15 23 8 3 17 16 21 27
13 40 136 158 199 190 117 59 141 65 279 66 108 1 140 -3 189 -20z m-1521
-219 c130 -253 183 -339 316 -515 155 -204 415 -433 625 -551 49 -27 114 -63
145 -81 98 -55 333 -160 442 -197 116 -39 249 -78 474 -137 81 -21 151 -41
155 -43 4 -3 88 -19 186 -36 99 -17 263 -49 365 -70 301 -63 604 -104 910
-121 256 -14 305 -31 70 -24 -256 8 -670 55 -910 105 -25 5 -110 21 -190 35
-217 39 -321 61 -475 99 -77 18 -192 46 -255 60 -516 121 -941 335 -1299 656
-102 90 -275 286 -366 413 -84 117 -295 539 -295 590 0 16 1 14 102 -183z
m15104 -332 c-10 -361 -25 -615 -67 -1153 -14 -180 -44 -456 -80 -740 -17
-132 -35 -271 -40 -310 -29 -235 -70 -431 -120 -572 -41 -116 -62 -155 -99
-186 -50 -43 -103 -49 -66 -9 41 46 110 283 140 482 17 109 68 526 110 905 30
260 42 415 56 700 6 116 15 275 21 355 5 80 14 211 19 293 8 140 11 155 60
300 29 83 54 158 56 165 13 45 16 -19 10 -230z m-15711 174 c3 -22 13 -52 21
-68 9 -16 21 -47 28 -69 12 -36 19 -61 45 -160 5 -16 9 -176 10 -355 2 -190 7
-332 12 -343 6 -10 9 -60 8 -112 -2 -62 1 -98 9 -108 8 -10 12 -50 11 -115 0
-55 3 -107 7 -114 5 -7 13 -49 17 -93 30 -314 39 -388 78 -650 5 -38 12 -99
15 -135 3 -36 10 -69 15 -74 5 -6 9 -38 9 -72 0 -35 5 -66 10 -69 6 -3 10 -30
10 -60 0 -30 5 -57 10 -60 6 -3 10 -30 10 -60 0 -30 5 -57 10 -60 6 -3 10 -26
10 -50 0 -24 4 -46 9 -49 5 -3 11 -20 14 -38 13 -81 26 -120 56 -173 18 -31
30 -59 28 -61 -7 -8 -83 59 -108 95 -13 19 -29 40 -35 46 -23 23 -64 115 -64
144 0 16 -5 33 -11 36 -5 4 -9 17 -8 28 2 12 -3 33 -10 46 -7 13 -11 38 -9 57
2 19 -1 35 -6 37 -5 2 -14 32 -18 68 -13 95 -26 186 -38 259 -6 36 -15 94 -20
130 -5 36 -14 90 -20 120 -6 30 -15 85 -21 123 -5 37 -14 100 -19 140 -6 39
-15 115 -20 167 -5 52 -15 138 -21 190 -5 52 -12 146 -14 208 -2 62 -7 121
-11 130 -5 9 -12 94 -16 187 -5 94 -13 265 -18 380 -12 267 -10 503 5 573 8
34 23 26 30 -16z m3140 28 c3 -5 17 -10 31 -10 38 0 96 -34 137 -79 31 -35 37
-48 37 -86 0 -62 -29 -116 -74 -138 -32 -15 -71 -17 -295 -17 -254 0 -258 0
-278 23 -53 58 -69 155 -37 220 33 64 58 76 164 77 52 0 102 5 110 10 20 13
197 13 205 0z m9764 -12 c7 -13 32 -39 57 -58 40 -32 44 -39 44 -78 0 -56 -22
-108 -65 -149 l-34 -33 -214 0 c-251 0 -265 3 -308 76 -49 84 -37 141 44 216
l52 48 206 0 c203 0 206 0 218 -22z m-2414 -1569 c-27 -11 -61 -25 -75 -31
-41 -19 -179 -49 -270 -59 -47 -5 -121 -14 -165 -20 -166 -22 -754 -30 -2147
-30 -791 0 -1483 0 -1538 1 -55 0 -139 0 -187 0 -93 -1 -291 13 -333 24 -21 5
-107 15 -390 43 -45 4 -140 41 -140 55 0 14 113 30 173 23 196 -19 912 -28
2547 -28 1791 -1 1869 0 2350 32 58 4 132 8 165 9 l60 1 -50 -20z m-8220 -549
c3 -168 10 -372 15 -455 6 -82 12 -184 15 -225 l4 -75 -14 90 c-15 101 -39
396 -55 675 -6 102 -13 211 -16 243 l-7 59 26 -4 26 -3 6 -305z m11235 153 c0
-146 -20 -417 -35 -468 -14 -47 -14 -41 -10 115 12 409 17 475 31 455 9 -12
14 -48 14 -102z m-11140 97 c11 -6 24 -27 30 -48 12 -44 35 -996 25 -1091 -6
-68 -30 -124 -64 -155 l-22 -20 2 100 c1 54 -3 349 -8 654 -6 305 -9 558 -6
563 6 10 21 9 43 -3z m10965 -205 c0 -110 -2 -378 -5 -595 -3 -217 -2 -417 3
-445 l7 -50 -25 30 c-42 49 -66 104 -76 172 -12 88 7 1046 21 1074 9 15 19 19
43 17 l32 -3 0 -200z m-1441 -195 c4 -82 8 -219 12 -302 3 -84 9 -157 15 -162
5 -6 9 -38 9 -72 0 -35 5 -66 10 -69 6 -3 10 -24 10 -46 0 -22 9 -59 20 -81
11 -23 20 -49 21 -57 0 -9 8 -28 17 -42 52 -80 72 -107 81 -110 6 -2 21 -30
36 -62 27 -62 28 -59 -35 -73 -19 -4 -608 -9 -1307 -11 -833 -2 -1273 -7
-1273 -13 0 -14 -427 -14 -435 0 -4 6 -63 10 -145 10 -82 0 -141 -4 -145 -10
-8 -13 -218 -13 -231 0 -12 12 -2498 8 -2555 -4 -24 -5 -39 -4 -43 3 -5 8
-351 11 -1217 11 l-1209 0 0 23 c0 14 22 44 60 82 33 33 60 64 60 71 0 6 9 19
20 29 11 10 20 23 20 30 0 7 9 20 20 30 11 10 20 25 20 34 0 19 24 88 33 97 4
4 7 26 7 49 0 22 4 45 10 51 6 6 10 137 10 348 1 244 4 343 13 357 11 18 30
19 504 19 317 0 494 -4 498 -10 3 -5 34 -10 69 -10 50 0 70 -5 97 -24 41 -29
212 -116 227 -116 6 0 27 -9 47 -20 20 -11 42 -20 50 -20 9 0 23 -4 33 -9 29
-14 87 -31 110 -31 11 0 24 -4 27 -10 3 -5 37 -10 75 -10 38 0 81 -5 95 -12
21 -9 31 -9 46 0 14 9 548 12 2294 12 1510 0 2275 3 2275 10 0 6 18 10 39 10
22 0 43 5 46 10 3 6 17 10 30 10 13 0 27 5 30 10 3 6 15 10 25 10 11 0 35 9
55 20 20 11 42 20 50 20 16 0 101 45 126 66 8 8 18 14 22 14 3 0 28 13 56 29
49 29 50 30 263 36 117 3 326 9 465 13 138 4 255 10 259 15 4 4 45 7 90 7 l83
0 5 -150z m-8281 -160 c1 -338 -19 -473 -88 -615 -19 -39 -44 -76 -55 -83 -11
-7 -20 -10 -20 -8 0 2 13 43 29 92 45 135 61 247 71 489 13 302 20 398 33 414
22 27 30 -44 30 -289z m8521 268 c3 -13 7 -142 10 -288 3 -146 12 -310 20
-365 25 -178 28 -211 17 -194 -18 28 -60 162 -71 229 -27 162 -51 616 -33 633
3 4 17 7 29 7 16 0 25 -7 28 -22z"/>
<path d="M4155 12230 c-3 -6 -52 -10 -110 -10 -58 0 -107 -4 -110 -10 -3 -5
-26 -10 -50 -10 -24 0 -47 -4 -50 -10 -3 -5 -19 -10 -35 -10 -16 0 -44 -8 -62
-18 -18 -10 -53 -24 -78 -31 -56 -17 -188 -79 -196 -93 -4 -6 -25 -18 -48 -29
-22 -10 -57 -34 -75 -53 -19 -20 -40 -36 -46 -36 -13 0 -155 -142 -155 -156 0
-5 -18 -28 -40 -49 -22 -21 -40 -44 -40 -51 0 -6 -7 -17 -15 -24 -9 -7 -23
-29 -32 -49 -9 -20 -22 -43 -29 -51 -22 -26 -78 -142 -93 -190 -7 -25 -17 -53
-22 -62 -5 -10 -9 -27 -9 -37 0 -11 -4 -22 -9 -25 -5 -3 -11 -23 -14 -43 -3
-21 -11 -58 -18 -83 -16 -58 -24 -409 -9 -424 5 -5 10 -25 10 -42 0 -18 5 -36
10 -39 6 -3 10 -21 10 -40 0 -19 5 -37 10 -40 6 -3 10 -21 10 -40 0 -20 8 -42
18 -52 10 -10 26 -44 36 -75 10 -31 24 -62 32 -69 8 -6 14 -19 14 -28 0 -9 13
-32 29 -51 15 -19 37 -53 49 -75 11 -22 41 -60 67 -85 26 -25 51 -55 56 -68 5
-12 19 -26 31 -31 13 -5 43 -30 68 -55 24 -25 49 -46 54 -46 6 0 27 -16 47
-36 39 -38 57 -50 129 -85 174 -85 313 -139 358 -139 12 0 24 -4 27 -10 3 -5
39 -10 79 -10 39 0 77 -5 83 -11 19 -19 307 1 423 31 25 6 57 14 73 17 15 3
30 9 33 14 3 5 11 9 19 9 20 0 201 89 215 105 7 8 18 15 25 15 6 0 20 9 30 20
10 11 23 20 29 20 14 0 276 261 276 275 0 6 14 24 30 40 17 16 30 34 30 40 0
7 9 20 20 30 11 10 20 24 20 30 0 7 7 18 15 25 9 7 25 33 35 56 11 24 24 45
29 49 12 7 41 64 41 80 0 7 13 39 29 71 33 69 51 122 51 152 0 11 5 24 10 27
6 3 10 30 10 60 0 30 5 57 10 60 6 4 10 67 10 155 0 88 -4 151 -10 155 -5 3
-10 31 -10 61 0 30 -4 54 -10 54 -5 0 -10 18 -10 39 0 22 -4 43 -10 46 -5 3
-10 21 -10 40 0 19 -4 37 -10 40 -5 3 -10 13 -10 22 0 19 -85 190 -106 214 -8
8 -14 20 -14 26 0 5 -9 18 -20 28 -11 10 -20 23 -20 28 0 20 -239 277 -257
277 -7 0 -17 8 -20 18 -4 9 -12 22 -18 28 -16 16 -178 94 -196 94 -9 0 -24 9
-34 20 -10 11 -28 20 -41 20 -13 0 -26 5 -29 10 -3 6 -17 10 -30 10 -13 0 -27
5 -30 10 -3 6 -21 10 -40 10 -19 0 -37 5 -40 10 -3 6 -21 10 -40 10 -19 0 -37
5 -40 10 -3 6 -35 10 -70 10 -35 0 -67 5 -70 10 -3 6 -37 10 -75 10 -38 0 -72
-4 -75 -10z m220 -328 c71 -15 125 -29 160 -40 41 -13 165 -76 211 -107 83
-57 201 -168 249 -234 17 -23 42 -56 56 -74 30 -36 51 -76 74 -136 8 -22 22
-60 32 -83 24 -63 34 -143 40 -333 5 -181 -3 -258 -40 -380 -22 -73 -84 -206
-120 -259 -31 -45 -160 -176 -173 -176 -6 0 -19 -10 -30 -21 -28 -32 -170
-121 -229 -145 -101 -40 -143 -54 -167 -54 -15 0 -30 -4 -33 -10 -3 -5 -35
-10 -70 -10 -35 0 -67 -4 -70 -10 -8 -13 -217 -13 -230 -1 -6 5 -30 11 -55 14
-171 21 -289 65 -435 162 -71 47 -189 159 -253 241 -26 33 -140 253 -154 299
-26 80 -49 226 -48 295 2 111 13 237 21 245 5 5 9 26 9 47 0 21 4 46 9 56 5 9
15 37 22 62 16 58 65 156 98 198 66 86 223 238 286 280 111 74 122 79 300 140
72 25 104 32 141 32 21 0 46 5 54 10 19 13 276 7 345 -8z"/>
<path d="M4055 11728 c-67 -22 -93 -28 -116 -28 -35 0 -97 -24 -197 -74 -73
-37 -101 -59 -172 -134 -100 -106 -131 -144 -155 -192 -9 -19 -23 -42 -30 -50
-8 -8 -20 -33 -28 -55 -8 -22 -24 -65 -36 -95 -12 -30 -21 -69 -21 -87 0 -17
-4 -35 -10 -38 -6 -4 -10 -60 -10 -135 0 -75 4 -131 10 -135 6 -3 10 -22 10
-41 0 -41 60 -166 135 -279 61 -92 219 -245 253 -245 5 0 15 -7 22 -15 26 -31
186 -92 285 -108 79 -12 277 -13 340 0 114 23 253 82 289 122 11 12 23 21 29
21 11 0 110 81 116 95 2 5 25 31 50 58 74 80 159 238 190 355 6 23 16 59 22
80 12 41 7 228 -8 307 -29 150 -123 318 -229 410 -31 28 -81 71 -110 97 -54
48 -179 118 -210 118 -9 0 -46 9 -83 21 -36 11 -80 25 -97 30 -39 12 -200 10
-239 -3z"/>
<path d="M16075 12230 c-3 -5 -44 -10 -90 -10 -46 0 -87 -4 -90 -10 -3 -5 -21
-10 -40 -10 -19 0 -37 -4 -40 -10 -3 -5 -17 -10 -30 -10 -13 0 -27 -4 -30 -10
-3 -5 -13 -10 -21 -10 -8 0 -34 -9 -56 -20 -23 -11 -47 -20 -53 -20 -18 0 -71
-28 -85 -45 -7 -8 -22 -15 -35 -15 -12 0 -30 -9 -40 -20 -10 -11 -23 -20 -30
-20 -7 0 -20 -9 -30 -20 -10 -11 -23 -20 -29 -20 -7 0 -34 -22 -61 -50 -27
-27 -55 -50 -61 -50 -7 0 -25 -16 -41 -35 -15 -20 -47 -58 -70 -84 -24 -26
-43 -52 -43 -56 0 -5 -11 -21 -25 -35 -30 -32 -135 -234 -135 -260 0 -11 -4
-22 -10 -25 -5 -3 -10 -17 -10 -30 0 -13 -4 -27 -10 -30 -5 -3 -10 -19 -10
-36 0 -16 -4 -37 -9 -47 -18 -36 -31 -90 -31 -130 0 -22 -4 -44 -10 -47 -6 -4
-10 -63 -10 -145 0 -82 4 -141 10 -145 6 -3 10 -25 10 -49 0 -23 4 -46 9 -51
5 -6 11 -30 14 -55 2 -25 14 -72 26 -105 29 -78 120 -263 133 -271 6 -4 19
-26 29 -49 10 -23 26 -48 34 -55 8 -7 15 -17 15 -23 0 -9 62 -82 128 -150 40
-43 118 -107 128 -107 6 0 17 -7 24 -15 6 -8 37 -26 68 -40 31 -14 64 -32 72
-40 30 -27 275 -145 302 -145 15 0 30 -4 33 -10 3 -5 21 -10 40 -10 19 0 37
-4 40 -10 3 -5 26 -10 51 -10 25 0 55 -5 67 -12 27 -14 276 -13 291 2 5 5 38
10 72 10 35 0 66 5 69 10 3 6 19 10 36 10 16 0 37 4 47 9 9 5 49 19 87 31 39
12 84 29 101 38 105 56 132 72 143 86 8 9 19 16 26 16 6 0 20 9 30 20 10 11
23 20 29 20 14 0 216 201 216 216 0 6 9 19 20 29 11 10 20 23 20 30 0 7 9 20
20 30 11 10 20 23 20 29 0 5 15 26 34 46 35 36 126 199 126 225 0 8 9 29 20
47 11 18 20 47 20 65 0 17 5 35 10 38 6 3 10 21 10 40 0 19 5 37 10 40 6 3 10
35 10 70 0 35 5 67 10 70 6 4 10 70 10 165 0 95 -4 161 -10 165 -5 3 -10 26
-10 50 0 24 -4 47 -10 50 -5 3 -10 16 -10 28 0 12 -9 37 -20 55 -11 18 -20 38
-20 44 0 19 -129 275 -145 288 -8 7 -15 18 -15 24 0 7 -18 30 -40 51 -22 21
-40 44 -40 50 0 5 -33 43 -73 83 -69 70 -156 135 -236 176 -20 10 -44 25 -53
33 -19 17 -166 83 -185 83 -7 0 -28 9 -48 20 -20 11 -49 20 -65 20 -16 0 -32
5 -35 10 -3 6 -21 10 -40 10 -19 0 -37 5 -40 10 -3 6 -44 10 -90 10 -46 0 -87
5 -90 10 -3 6 -50 10 -105 10 -55 0 -102 -4 -105 -10z m310 -325 c33 -4 64
-11 70 -16 5 -5 18 -9 30 -9 11 0 39 -7 63 -15 58 -20 242 -113 260 -132 8 -8
31 -25 51 -38 53 -35 216 -197 246 -246 110 -177 168 -379 167 -584 -1 -130
-11 -248 -23 -259 -5 -6 -9 -19 -9 -30 -1 -55 -90 -245 -149 -314 -82 -97
-158 -176 -191 -199 -62 -42 -105 -72 -116 -82 -53 -44 -266 -117 -419 -143
-103 -17 -296 -8 -410 20 -88 22 -238 76 -271 98 -19 13 -39 24 -43 24 -5 0
-14 7 -22 16 -7 8 -31 25 -53 36 -23 11 -55 34 -73 50 -17 17 -42 35 -54 42
-12 6 -37 31 -55 56 -132 179 -171 261 -234 485 -14 52 -8 384 9 445 7 25 16
65 20 90 4 25 16 63 26 85 54 123 90 195 96 195 4 0 11 9 14 21 7 20 174 199
187 199 4 0 37 20 74 45 37 25 79 48 93 52 14 3 51 18 81 33 30 14 75 32 100
39 25 7 59 17 76 22 17 5 44 9 60 9 16 0 36 5 44 10 15 11 243 7 355 -5z"/>
<path d="M16065 11730 c-11 -5 -34 -9 -52 -9 -17 -1 -35 -5 -38 -11 -3 -5 -18
-10 -33 -10 -48 0 -129 -34 -219 -91 -36 -23 -223 -207 -223 -219 0 -5 -6 -15
-14 -23 -41 -40 -146 -294 -146 -351 0 -14 -4 -28 -10 -31 -6 -4 -10 -61 -10
-138 0 -120 3 -139 29 -213 29 -79 92 -213 114 -241 39 -49 148 -163 180 -188
21 -17 52 -42 70 -56 64 -53 211 -113 322 -131 33 -6 107 -11 165 -11 281 1
452 77 672 298 52 52 82 93 115 160 76 150 86 197 87 405 0 123 -3 168 -18
220 -21 72 -92 219 -128 264 -53 65 -91 106 -100 106 -5 0 -33 24 -62 53 -62
61 -105 91 -207 143 -75 38 -107 48 -214 66 -83 14 -256 19 -280 8z"/>
<path d="M9935 11211 c-11 -5 -137 -9 -279 -10 -175 -1 -263 -5 -272 -12 -11
-9 -18 -8 -29 1 -12 10 -19 10 -27 2 -9 -9 -91 -12 -283 -12 -158 0 -275 -4
-280 -9 -6 -6 -82 -12 -170 -15 -88 -3 -232 -10 -320 -16 -88 -5 -227 -14
-310 -19 -160 -10 -218 -17 -250 -31 -11 -5 -56 -11 -100 -14 -44 -2 -100 -10
-125 -16 -25 -7 -83 -16 -130 -20 -47 -5 -109 -13 -137 -19 -29 -6 -74 -15
-100 -20 -27 -4 -73 -16 -103 -25 -30 -10 -71 -22 -90 -27 -19 -6 -64 -23
-100 -38 -36 -16 -90 -39 -120 -51 -30 -12 -83 -35 -117 -51 -34 -16 -69 -26
-77 -23 -8 3 -20 -3 -27 -14 -8 -11 -43 -34 -78 -52 -98 -49 -283 -238 -344
-350 -52 -97 -117 -226 -142 -285 -62 -141 -97 -500 -66 -675 7 -36 14 -85 17
-110 3 -25 10 -49 15 -54 5 -6 9 -20 9 -33 0 -12 10 -44 21 -70 82 -185 106
-226 167 -291 17 -19 32 -39 32 -44 0 -15 191 -207 222 -223 14 -8 34 -23 44
-32 10 -10 40 -32 68 -50 28 -18 56 -37 63 -42 11 -10 72 -39 157 -75 80 -35
366 -126 394 -126 15 0 32 -4 38 -9 11 -11 76 -20 189 -27 44 -3 84 -10 89
-15 6 -5 61 -9 122 -9 65 0 115 -4 119 -10 3 -5 30 -10 59 -10 28 0 56 -4 62
-9 5 -6 63 -12 129 -16 66 -3 210 -10 320 -16 277 -14 3730 -14 3965 1 96 5
243 13 325 15 83 3 159 10 170 15 11 5 85 11 165 14 80 2 170 9 200 15 30 7
80 16 110 21 30 5 74 13 98 19 23 6 59 15 80 21 20 5 55 13 77 18 50 12 267
84 320 107 111 48 155 69 155 75 0 4 23 17 50 30 28 13 50 26 50 29 0 3 17 17
38 31 44 29 162 145 162 159 0 5 6 16 13 23 7 7 26 37 42 66 15 28 32 52 36
52 5 0 16 14 25 32 9 18 23 38 30 46 8 7 14 17 14 22 0 5 6 15 13 22 7 7 26
38 42 68 16 30 35 62 42 71 13 16 48 114 65 184 27 107 39 339 23 433 -5 28
-3 47 5 57 7 9 9 22 5 32 -4 10 -12 41 -17 68 -21 118 -26 143 -46 201 -19 58
-85 192 -137 280 -64 108 -243 279 -385 369 -25 16 -56 39 -70 51 -59 53 -302
154 -370 154 -19 0 -60 9 -90 20 -30 11 -65 20 -77 20 -13 0 -28 9 -35 20 -12
18 -24 20 -138 20 -69 0 -130 4 -136 9 -5 5 -52 12 -104 15 -52 3 -131 10
-175 16 -179 24 -244 31 -320 36 -44 2 -89 9 -100 14 -11 5 -72 12 -135 15
-63 3 -189 9 -280 15 -91 6 -246 13 -345 15 -99 3 -189 10 -200 15 -11 5 -123
12 -250 15 -213 5 -677 18 -1010 29 -77 3 -149 1 -160 -3z m850 -301 c1052
-18 1447 -29 1615 -44 91 -9 244 -20 340 -26 338 -21 486 -37 532 -60 l43 -21
-340 6 c-187 3 -461 11 -610 17 -384 16 -4090 16 -4400 0 -411 -21 -748 -41
-855 -51 -58 -6 -121 -10 -140 -10 -34 1 -34 1 25 29 81 38 134 47 390 65 121
8 258 20 305 26 218 27 415 40 780 50 1160 31 1433 33 2315 19z m2939 -356
c54 -23 113 -53 132 -68 40 -31 46 -61 12 -53 -158 40 -280 44 -601 22 -161
-12 -239 -13 -295 -6 -141 18 -574 24 -797 11 -148 -9 -564 -14 -1405 -14
-798 -1 -1253 -5 -1370 -13 -266 -18 -667 -19 -1295 -5 -942 22 -1206 20
-1635 -14 l-75 -6 47 46 c26 26 66 53 90 62 58 21 304 33 808 39 223 2 655 9
960 16 331 6 1427 11 2710 11 1185 0 2205 4 2265 8 61 4 164 7 230 6 115 -2
124 -4 219 -42z m-5219 -288 c3986 12 5112 9 5418 -19 l139 -12 35 -38 c19
-21 33 -40 31 -42 -2 -2 -1471 -3 -3263 -2 -1793 1 -3576 1 -3962 -1 -693 -2
-703 -2 -703 17 0 11 11 32 24 48 l24 28 436 12 c240 7 474 14 519 16 45 2
278 2 517 -2 239 -3 593 -6 785 -5z m3250 -272 c2458 -5 2444 -5 2463 -17 7
-5 21 -26 32 -47 15 -30 17 -41 7 -47 -6 -4 -1845 -9 -4085 -10 -3422 -2
-4074 0 -4078 11 -7 19 14 93 28 103 20 11 1038 18 2238 15 613 -2 2141 -5
3395 -8z m2543 -270 c19 -5 22 -13 22 -54 l0 -48 -142 -5 c-79 -2 -629 -5
-1223 -6 -594 0 -2059 -4 -3255 -7 -1629 -5 -2359 -4 -2908 6 -404 8 -735 17
-738 22 -3 5 -3 24 0 42 l6 33 273 8 c149 4 1171 9 2270 10 1099 2 2001 6
2005 9 8 9 3661 -1 3690 -10z m23 -263 c12 -11 -3 -70 -19 -76 -54 -21 -927
-26 -4424 -28 -2093 -1 -3809 1 -3813 5 -12 12 -9 78 3 90 10 10 365 12 1655
11 903 -1 2038 1 2522 5 1001 8 4067 3 4076 -7z m-76 -241 c9 -15 -22 -73 -47
-90 -20 -12 -421 -15 -2873 -20 -1567 -4 -3371 -5 -4009 -2 l-1158 5 -14 33
c-8 18 -14 44 -14 58 l0 24 4054 1 c2717 1 4057 -2 4061 -9z m-513 -261 l367
-12 -15 -28 c-28 -55 -10 -54 -674 -54 -338 0 -1625 -4 -2860 -8 -1235 -5
-2689 -5 -3232 0 -980 8 -987 8 -1015 29 -23 18 -43 58 -31 66 25 17 6943 23
7460 7z m113 -236 l70 -8 -48 -33 c-26 -19 -62 -38 -80 -43 -55 -17 -1435 -24
-4202 -22 -2518 1 -2988 6 -3029 30 -7 5 -33 26 -58 48 l-45 40 3661 -2 c2014
-1 3693 -6 3731 -10z m-442 -251 c34 -1 47 -6 45 -14 -8 -23 -151 -48 -373
-63 -121 -9 -227 -18 -235 -20 -67 -20 -673 -26 -2735 -26 -2419 1 -2386 0
-2920 50 -202 19 -275 33 -275 52 0 11 -6 10 195 18 137 5 6162 8 6298 3z"/>
<path d="M15924 8941 c-96 -38 -177 -117 -233 -228 -29 -58 -31 -70 -31 -163
0 -95 2 -104 34 -168 32 -62 134 -179 176 -202 48 -26 112 -40 183 -40 69 0
85 4 145 34 102 52 205 167 231 256 7 25 17 59 22 76 11 38 12 79 0 102 -5 9
-14 41 -21 71 -27 118 -126 218 -262 266 -57 20 -190 18 -244 -4z"/>
<path d="M4275 8971 c-3 -6 -25 -11 -48 -11 -57 -1 -113 -33 -191 -109 -76
-73 -77 -74 -110 -172 -26 -79 -37 -199 -19 -221 11 -13 20 -48 30 -106 3 -19
14 -37 27 -44 11 -6 46 -34 76 -62 30 -28 75 -60 100 -70 25 -10 56 -23 70
-28 14 -6 56 -10 94 -9 55 2 82 9 130 33 123 61 227 194 248 317 11 69 11 74
0 136 -17 91 -47 154 -98 206 -81 83 -148 120 -239 132 -16 2 -37 7 -46 11
-10 4 -20 3 -24 -3z"/>
</g>
</svg>
